# xmcd
# Copyright (C) 1995-1998 Ti Kan
#
# Track frame offsets:
#       150
#       11322
#       24021
#       35779
#
# Disc length: 671 seconds
#
# Revision: 0
# Processed by: cddbd v1.5.2PL0 Copyright (c) Steve Scherf et al.
# Submitted via: CD-Import v1.0
#
DISCID=1f029d04
DTITLE=Hearts And Knives - Can You Feel It?
DYEAR=2009
DGENRE=
TTITLE0=Can You Feel It
TTITLE1=See Her
TTITLE2=It Doesn't Matter
TTITLE3=Romance
EXTD=
EXTT0=
EXTT1=
EXTT2=
EXTT3=
PLAYORDER=
